<?xml version="1.0" standalone="no"?><svg xmlns="http://www.w3.org/2000/svg" viewBox="0 0 1440 320"><path fill="#27ae60" fill-opacity="1" d="M0,64L8.9,80C17.8,96,36,128,53,144C71.1,160,89,160,107,133.3C124.4,107,142,53,160,69.3C177.8,85,196,171,213,202.7C231.1,235,249,213,267,218.7C284.4,224,302,256,320,256C337.8,256,356,224,373,186.7C391.1,149,409,107,427,128C444.4,149,462,235,480,256C497.8,277,516,235,533,229.3C551.1,224,569,256,587,234.7C604.4,213,622,139,640,122.7C657.8,107,676,149,693,138.7C711.1,128,729,64,747,42.7C764.4,21,782,43,800,74.7C817.8,107,836,149,853,138.7C871.1,128,889,64,907,37.3C924.4,11,942,21,960,64C977.8,107,996,181,1013,213.3C1031.1,245,1049,235,1067,234.7C1084.4,235,1102,245,1120,218.7C1137.8,192,1156,128,1173,122.7C1191.1,117,1209,171,1227,181.3C1244.4,192,1262,160,1280,160C1297.8,160,1316,192,1333,218.7C1351.1,245,1369,267,1387,234.7C1404.4,203,1422,117,1431,74.7L1440,32L1440,320L1431.1,320C1422.2,320,1404,320,1387,320C1368.9,320,1351,320,1333,320C1315.6,320,1298,320,1280,320C1262.2,320,1244,320,1227,320C1208.9,320,1191,320,1173,320C1155.6,320,1138,320,1120,320C1102.2,320,1084,320,1067,320C1048.9,320,1031,320,1013,320C995.6,320,978,320,960,320C942.2,320,924,320,907,320C888.9,320,871,320,853,320C835.6,320,818,320,800,320C782.2,320,764,320,747,320C728.9,320,711,320,693,320C675.6,320,658,320,640,320C622.2,320,604,320,587,320C568.9,320,551,320,533,320C515.6,320,498,320,480,320C462.2,320,444,320,427,320C408.9,320,391,320,373,320C355.6,320,338,320,320,320C302.2,320,284,320,267,320C248.9,320,231,320,213,320C195.6,320,178,320,160,320C142.2,320,124,320,107,320C88.9,320,71,320,53,320C35.6,320,18,320,9,320L0,320Z"></path></svg>